<svg width="175" height="172" viewBox="0 0 175 172" fill="none" xmlns="http://www.w3.org/2000/svg">
<path opacity="0.2" d="M117.345 2.63625C134.777 9.92983 139.877 31.2935 149.8 47.3524C159.632 63.2657 175.019 77.2484 175 95.9452C174.981 115.079 163.083 132.225 149.701 145.924C137.039 158.886 120.266 166.507 102.502 170.16C85.3452 173.688 67.8882 172.031 51.3943 166.142C34.3345 160.05 17.0502 151.717 7.61531 136.277C-1.76826 120.921 -0.527099 101.927 1.21592 84.0234C2.91254 66.5966 6.18709 48.8416 17.4357 35.4072C28.6891 21.9671 45.8316 16.2959 62.5024 10.8278C80.5035 4.92328 99.8697 -4.67521 117.345 2.63625Z" fill="url(#paint0_linear_91_4173)"/>
<defs>
<linearGradient id="paint0_linear_91_4173" x1="87.5" y1="0" x2="87.5" y2="172" gradientUnits="userSpaceOnUse">
<stop stop-color="#F3A6BE"/>
<stop offset="0.47" stop-color="#C14A7A"/>
<stop offset="1" stop-color="white"/>
</linearGradient>
</defs>
</svg>
