<svg width="165" height="157" viewBox="0 0 165 157" fill="none" xmlns="http://www.w3.org/2000/svg">
<path opacity="0.2" d="M92.9333 1.27374C109.438 3.64266 124.893 10.3563 137.378 21.3902C150.171 32.6968 161.171 46.9589 163.709 63.8259C166.201 80.3869 158.078 96.0067 150.882 111.135C143.695 126.243 136.919 142.746 122.29 150.9C107.606 159.085 89.9168 156.26 73.1986 154.434C56.1423 152.572 38.291 151.145 25.0281 140.279C11.2688 129.006 1.75972 112.285 0.153111 94.589C-1.382 77.6805 8.9507 62.853 16.623 47.7007C24.067 32.9993 29.9118 16.5613 44.0029 7.98832C58.4138 -0.779195 76.2286 -1.12386 92.9333 1.27374Z" fill="url(#paint0_linear_91_4172)"/>
<defs>
<linearGradient id="paint0_linear_91_4172" x1="82.0841" y1="0" x2="82.0841" y2="156.426" gradientUnits="userSpaceOnUse">
<stop stop-color="#F3A6BE"/>
<stop offset="0.47" stop-color="#C14A7A"/>
<stop offset="1" stop-color="white"/>
</linearGradient>
</defs>
</svg>
