<svg width="29" height="29" viewBox="0 0 29 29" fill="none" xmlns="http://www.w3.org/2000/svg">
<path d="M16.848 17.8356L15.7848 21.5544C15.3864 22.9464 13.4136 22.9464 13.0152 21.5544L11.9532 17.8356C11.886 17.6004 11.7599 17.3861 11.5869 17.2131C11.4139 17.0401 11.1996 16.9141 10.9644 16.8468L7.2456 15.7848C5.8536 15.3864 5.8536 13.4136 7.2456 13.0152L10.9644 11.9532C11.1996 11.886 11.4139 11.7599 11.5869 11.5869C11.7599 11.4139 11.886 11.1997 11.9532 10.9644L13.0152 7.24561C13.4136 5.85361 15.3864 5.85361 15.7848 7.24561L16.8468 10.9644C16.914 11.1997 17.0401 11.4139 17.2131 11.5869C17.3861 11.7599 17.6004 11.886 17.8356 11.9532L21.5544 13.0152C22.9464 13.4136 22.9464 15.3864 21.5544 15.7848L17.8356 16.8468C17.6004 16.9141 17.3861 17.0401 17.2131 17.2131C17.0401 17.3861 16.914 17.6004 16.8468 17.8356M23.484 23.6592L23.0328 25.4688C22.9728 25.7112 22.6284 25.7112 22.5672 25.4688L22.1148 23.6592C22.1042 23.6172 22.0824 23.5789 22.0518 23.5482C22.0212 23.5176 21.9828 23.4958 21.9408 23.4852L20.1312 23.0328C19.8888 22.9728 19.8888 22.6284 20.1312 22.5672L21.9408 22.1148C21.9828 22.1042 22.0212 22.0824 22.0518 22.0518C22.0824 22.0212 22.1042 21.9828 22.1148 21.9408L22.5672 20.1312C22.6272 19.8888 22.9716 19.8888 23.0328 20.1312L23.4852 21.9408C23.4958 21.9828 23.5176 22.0212 23.5482 22.0518C23.5788 22.0824 23.6172 22.1042 23.6592 22.1148L25.4688 22.5672C25.7112 22.6272 25.7112 22.9716 25.4688 23.0328L23.6592 23.4852C23.6172 23.4958 23.5788 23.5176 23.5482 23.5482C23.5176 23.5789 23.4946 23.6172 23.484 23.6592ZM6.684 6.85921L6.2328 8.66881C6.1728 8.91121 5.8272 8.91121 5.7672 8.66881L5.3148 6.85921C5.3042 6.81721 5.28243 6.77885 5.2518 6.74822C5.22116 6.71758 5.18281 6.69581 5.1408 6.68521L3.3312 6.23281C3.0888 6.17281 3.0888 5.82721 3.3312 5.76721L5.1408 5.31481C5.18281 5.30422 5.22116 5.28245 5.2518 5.25181C5.28243 5.22118 5.3042 5.18282 5.3148 5.14081L5.7672 3.33121C5.8272 3.08881 6.1728 3.08881 6.2328 3.33121L6.6852 5.14081C6.6958 5.18282 6.71757 5.22118 6.7482 5.25181C6.77884 5.28245 6.81719 5.30422 6.8592 5.31481L8.6688 5.76721C8.9112 5.82721 8.9112 6.17281 8.6688 6.23281L6.8592 6.68521C6.81719 6.69581 6.77884 6.71758 6.7482 6.74822C6.71757 6.77885 6.6946 6.81721 6.684 6.85921Z" stroke="#C14A7A" stroke-width="1.5" stroke-miterlimit="10" stroke-linecap="round" stroke-linejoin="round"/>
</svg>
