<svg width="18" height="18" viewBox="0 0 18 18" fill="none" xmlns="http://www.w3.org/2000/svg">
<path d="M9.22459 2.54297H8.21157C7.69241 2.54297 7.43284 2.54297 7.20005 2.62434C7.05789 2.67402 6.92431 2.74551 6.80411 2.83623C6.60728 2.98479 6.46329 3.20077 6.17533 3.63271C6.02785 3.85394 5.81046 4.18003 5.72381 4.27109C5.50911 4.49671 5.22758 4.64738 4.92075 4.70087C4.79692 4.72246 4.66398 4.72246 4.3981 4.72246C3.68607 4.72246 3.33007 4.72246 3.03897 4.80486C2.31078 5.01099 1.74164 5.58012 1.53551 6.30832C1.45311 6.59941 1.45311 6.95542 1.45311 7.66745V10.5344C1.45311 12.5892 1.45311 13.6167 2.09147 14.255C2.72982 14.8934 3.75725 14.8934 5.81208 14.8934H11.6241C13.6789 14.8934 14.7063 14.8934 15.3447 14.255C15.983 13.6167 15.983 12.5892 15.983 10.5344V7.66745C15.983 6.95542 15.983 6.59941 15.9007 6.30832C15.6945 5.58012 15.1253 5.01099 14.3972 4.80486C14.1061 4.72246 13.7501 4.72246 13.038 4.72246C12.7721 4.72246 12.6392 4.72246 12.5154 4.70087C12.2085 4.64738 11.927 4.49671 11.7123 4.27109C11.6257 4.18003 11.4083 3.85394 11.2608 3.63271C10.9728 3.20077 10.8288 2.98479 10.632 2.83623C10.5118 2.74551 10.3783 2.67402 10.2361 2.62434C10.0033 2.54297 9.74375 2.54297 9.22459 2.54297Z" stroke="#C14A7A" stroke-width="1.30769" stroke-linecap="round" stroke-linejoin="round"/>
<path d="M11.6241 9.44407C11.6241 11.049 10.323 12.3501 8.71807 12.3501C7.11312 12.3501 5.81207 11.049 5.81207 9.44407C5.81207 7.83917 7.11312 6.53809 8.71807 6.53809C10.323 6.53809 11.6241 7.83917 11.6241 9.44407Z" stroke="#C14A7A" stroke-width="1.30769" stroke-linecap="round" stroke-linejoin="round"/>
<path d="M13.8036 6.90234V6.90961" stroke="#C14A7A" stroke-width="1.74359" stroke-linecap="round" stroke-linejoin="round"/>
</svg>
