<svg width="88" height="21" viewBox="0 0 88 21" fill="none" xmlns="http://www.w3.org/2000/svg">
<path d="M16.2015 0H13.1479L8.36455 7.20587L3.58121 0H0.412012L6.77909 9.55104L0 19.7479H3.08227L8.30458 11.8693L13.5582 19.7479H16.7004L9.89178 9.49281L16.2015 0Z" fill="black"/>
<path d="M28.4885 8.47576C28.4885 8.47576 27.2386 6.95636 25.7148 6.32878C25.7079 6.32617 25.7009 6.32269 25.694 6.32009C25.0012 6.03759 24.271 5.89417 23.5244 5.89417C22.3344 5.89417 21.2305 6.20969 20.2422 6.83119C19.2495 7.45616 18.4559 8.31496 17.8857 9.38323C17.3129 10.455 17.0226 11.6554 17.0226 12.9531C17.0226 14.2509 17.3129 15.4574 17.8866 16.5387C18.4577 17.6165 19.2495 18.4797 20.2422 19.1038C21.2296 19.7261 22.3335 20.0408 23.5244 20.0408C24.271 20.0408 25.0142 19.9278 25.694 19.6149C27.7097 18.6866 28.4877 17.5809 28.4877 17.5809V19.7479H30.9641V6.18709H28.4877V8.47489L28.4885 8.47576ZM28.4885 15.2835L28.439 15.3722C28.053 16.0589 27.4594 16.6274 26.6753 17.0611C25.8974 17.4922 25.0646 17.7113 24.1998 17.7113C23.3349 17.7113 22.5274 17.5018 21.8068 17.088C21.0845 16.6743 20.5082 16.098 20.0944 15.3757C19.6807 14.6542 19.4712 13.8398 19.4712 12.9531C19.4712 12.0665 19.6815 11.2555 20.0962 10.5437C20.5108 9.83176 21.0862 9.26154 21.8077 8.84779C22.5283 8.43404 23.334 8.22456 24.2006 8.22456C25.0673 8.22456 25.9234 8.4436 26.6927 8.87561C27.4681 9.31109 28.0565 9.88999 28.4425 10.5975L28.4903 10.6845V15.2844L28.4885 15.2835Z" fill="black"/>
<path d="M43.112 6.18713H33.7661V19.7479H36.2425V8.51666H43.4719V19.7479H45.9779V9.05297C45.9779 8.21504 45.7127 7.54226 45.1677 6.99725C44.6227 6.45225 43.95 6.188 43.112 6.188V6.18713Z" fill="black"/>
<path d="M59.7765 8.43844C59.7765 8.43844 58.8864 7.16068 56.9819 6.31927C56.2979 6.01678 55.559 5.89335 54.8124 5.89335C53.6224 5.89335 52.5185 6.20888 51.5302 6.83037C50.5375 7.45534 49.7439 8.31414 49.1737 9.38242C48.6009 10.4533 48.3105 11.6546 48.3105 12.9523C48.3105 14.2501 48.6009 15.4574 49.1746 16.5379C49.7456 17.6157 50.5375 18.4789 51.5302 19.103C52.5176 19.7253 53.6215 20.04 54.8124 20.04C55.559 20.04 56.2848 19.8879 56.9819 19.6141C58.2832 19.1038 59.7756 17.7096 59.7756 17.7096V19.7462H62.252V0H59.7756V8.43844H59.7765ZM59.7765 15.2836L59.7269 15.3722C59.341 16.0589 58.7482 16.6274 57.9633 17.0611C57.1853 17.4923 56.3517 17.7113 55.4877 17.7113C54.6237 17.7113 53.8154 17.5018 53.0948 17.0881C52.3724 16.6743 51.7961 16.098 51.3824 15.3757C50.9686 14.6543 50.7592 13.8398 50.7592 12.9532C50.7592 12.0666 50.9695 11.2556 51.3841 10.5437C51.7988 9.83181 52.3742 9.26159 53.0956 8.84784C53.8162 8.43409 54.622 8.22461 55.4886 8.22461C56.3552 8.22461 57.2114 8.44365 57.9807 8.87566C58.756 9.31114 59.3445 9.89091 59.7304 10.5976L59.7782 10.6845V15.2845L59.7765 15.2836Z" fill="black"/>
<path d="M66.1288 6.99725C65.5838 7.54226 65.3196 8.21504 65.3196 9.05297V19.7479H67.796V8.51666H72.7515V6.18713H68.1559C67.3371 6.18713 66.6738 6.45225 66.1288 6.99638V6.99725Z" fill="black"/>
<path d="M84.6283 6.18717V8.47497C84.6283 8.47497 83.3784 6.95556 81.8546 6.32798C81.8477 6.32538 81.8407 6.3219 81.8337 6.31929C81.141 6.03679 80.4108 5.89337 79.6642 5.89337C78.4742 5.89337 77.3703 6.2089 76.382 6.8304C75.3893 7.45537 74.5957 8.31416 74.0255 9.38244C73.4527 10.4542 73.1624 11.6546 73.1624 12.9523C73.1624 14.2501 73.4527 15.4566 74.0264 16.5379C74.5974 17.6157 75.3893 18.4789 76.382 19.103C77.3694 19.7254 78.4733 20.04 79.6642 20.04C80.4108 20.04 81.154 19.927 81.8337 19.6141C83.8495 18.6858 84.6274 17.5801 84.6274 17.5801V19.7471H87.1039V6.18717H84.6274H84.6283ZM84.6283 15.2836L84.5788 15.3723C84.1928 16.059 83.5991 16.6274 82.8151 17.0612C82.0371 17.4923 81.2044 17.7114 80.3395 17.7114C79.4747 17.7114 78.6672 17.5019 77.9466 17.0881C77.2242 16.6744 76.6479 16.0981 76.2342 15.3757C75.8204 14.6543 75.611 13.8398 75.611 12.9532C75.611 12.0666 75.8213 11.2556 76.2359 10.5437C76.6506 9.83183 77.226 9.26162 77.9474 8.84787C78.668 8.43412 79.4738 8.22463 80.3404 8.22463C81.207 8.22463 82.0632 8.44368 82.8325 8.87568C83.6078 9.31117 84.1963 9.89007 84.5822 10.5976L84.63 10.6845V15.2845L84.6283 15.2836Z" fill="black"/>
</svg>
