<svg width="24" height="23" viewBox="0 0 24 23" fill="none" xmlns="http://www.w3.org/2000/svg">
<path d="M20.8604 16.269C20.541 16.1727 20.1926 16.0794 19.8242 15.9802C19.1312 15.7942 18.3462 15.5835 17.4419 15.2735C14.6653 14.3197 13.2526 12.6993 12.6959 12.0422C13.303 11.698 15.4014 10.5246 16.8267 9.92371C19.7264 8.70075 23.623 6.71426 23.9788 3.59888C24.084 2.68074 23.7957 1.79397 23.1671 1.10191C22.5312 0.40182 21.638 0 20.7174 0C19.3995 0 18.235 0.83281 17.5242 2.28549C17.3923 2.55385 17.2678 2.8018 17.1425 3.04318C16.1181 5.02676 15.053 6.64206 13.8871 7.98025C13.3912 8.54834 12.9027 9.03694 12.3935 9.47449C12.1963 9.64368 11.9836 9.81141 11.7583 9.97403C11.507 8.09693 10.8577 6.2665 10.8503 6.24462C9.11804 1.6401 6.09461 0 3.84204 0C3.32171 0 2.82286 0.0838644 2.3596 0.249406C1.51091 0.552047 0.883833 1.06544 0.495434 1.77355C-0.0812349 2.82368 0.00771145 4.11446 0.728177 5.14271C1.29966 5.95948 2.05867 6.34598 3.09712 6.70478C3.40102 6.80979 3.73308 6.90897 4.08368 7.01398C4.78117 7.22182 5.57131 7.4581 6.46744 7.83367C8.7163 8.77659 9.91115 10.3511 10.2403 10.8397C9.60132 11.1387 7.29983 12.2121 5.97157 12.7984C5.1629 13.155 4.32013 13.659 3.31874 14.3838C1.80591 15.4792 0.828983 16.5935 0.330883 17.7902C-0.148686 18.9417 -0.201313 20.689 0.814159 21.804C1.44123 22.4924 2.40185 22.9037 3.38249 22.9037C3.46476 22.9037 3.54778 22.9008 3.62931 22.895C4.12741 22.86 4.61884 22.7039 5.05097 22.4436C5.90263 21.9302 6.39851 20.9982 6.73502 20.2441C6.73502 20.2441 6.81656 20.0618 6.85436 19.9794C7.25165 19.0912 7.66822 18.1869 8.0922 17.2914C8.53693 16.3506 9.16771 15.4012 9.96526 14.4706C10.3299 14.0455 10.8607 13.5335 11.1267 13.2827C11.5211 14.098 12.9998 17.1412 13.6728 18.3495C15.2961 21.2615 17.7362 23 20.2015 23C20.7937 23 21.3519 22.8957 21.8618 22.6908C22.6979 22.3539 23.3035 21.8164 23.6623 21.0937C24.1952 20.0217 24.0529 18.7346 23.2916 17.7362C22.6868 16.9421 21.913 16.5862 20.8604 16.2697V16.269Z" fill="url(#paint0_linear_58_3010)"/>
<defs>
<linearGradient id="paint0_linear_58_3010" x1="44.9486" y1="13.8252" x2="-15.4649" y2="9.32308" gradientUnits="userSpaceOnUse">
<stop stop-color="#49002D"/>
<stop offset="0.1" stop-color="#550435"/>
<stop offset="0.29" stop-color="#770F4D"/>
<stop offset="0.55" stop-color="#AD2173"/>
<stop offset="0.85" stop-color="#F839A7"/>
<stop offset="0.88" stop-color="#FF3CAC"/>
</linearGradient>
</defs>
</svg>
