<svg width="119" height="111" viewBox="0 0 119 111" fill="none" xmlns="http://www.w3.org/2000/svg">
<g clip-path="url(#clip0_259_2943)">
<path d="M52.1572 70.6939C50.9927 70.6939 49.8707 70.2638 49.0425 69.4899L37.2943 58.5315C35.5731 56.9274 35.5731 54.3248 37.2943 52.7208C39.0139 51.1154 41.8041 51.1154 43.5237 52.7208L51.6799 60.3287L75.0647 31.2437C76.5274 29.4273 79.2912 29.0616 81.2326 30.4218C83.1798 31.7834 83.5749 34.36 82.1151 36.1749L55.6817 69.0502C54.9166 70.0036 53.7432 70.5994 52.47 70.683C52.3657 70.6898 52.26 70.6939 52.1572 70.6939Z" fill="#C14A7A"/>
<path d="M11.9 57.3499H1.98333C0.88655 57.3499 0 56.523 0 55.4999C0 54.4769 0.88655 53.6499 1.98333 53.6499H11.9C12.9968 53.6499 13.8833 54.4769 13.8833 55.4999C13.8833 56.523 12.9968 57.3499 11.9 57.3499Z" fill="#F3A6BE"/>
<path d="M9.69239 84.1752C9.00616 84.1752 8.33976 83.8441 7.97284 83.2502C7.42544 82.3641 7.75071 81.2337 8.69874 80.7231L17.2866 76.0981C18.2326 75.5894 19.4464 75.8891 19.9958 76.7752C20.5432 77.6614 20.2179 78.7917 19.2699 79.3023L10.6821 83.9273C10.3707 84.0957 10.0296 84.1752 9.69239 84.1752Z" fill="#F3A6BE"/>
<path d="M30.7395 103.811C30.4024 103.811 30.0612 103.731 29.7499 103.563C28.7998 103.052 28.4746 101.92 29.024 101.036L33.9823 93.0254C34.5317 92.1392 35.7435 91.8358 36.6915 92.3483C37.6396 92.8607 37.9668 93.9911 37.4174 94.8754L32.4591 102.886C32.0902 103.478 31.4258 103.811 30.7395 103.811Z" fill="#F3A6BE"/>
<path d="M59.4999 111C58.4032 111 57.5166 110.173 57.5166 109.15V99.8998C57.5166 98.8768 58.4032 98.0498 59.4999 98.0498C60.5967 98.0498 61.4833 98.8768 61.4833 99.8998V109.15C61.4833 110.173 60.5967 111 59.4999 111Z" fill="#F3A6BE"/>
<path d="M88.2601 103.811C87.5739 103.811 86.9075 103.48 86.5405 102.886L81.5822 94.8755C81.0348 93.9894 81.3601 92.859 82.3081 92.3484C83.2522 91.8378 84.468 92.1394 85.0174 93.0255L89.9757 101.036C90.5231 101.922 90.1978 103.053 89.2498 103.563C88.9384 103.731 88.5973 103.811 88.2601 103.811Z" fill="#F3A6BE"/>
<path d="M109.307 84.1751C108.97 84.1751 108.629 84.0955 108.318 83.9272L99.7298 79.3022C98.7798 78.7916 98.4546 77.6594 99.0039 76.7751C99.5513 75.8889 100.767 75.5874 101.713 76.098L110.301 80.723C111.251 81.2336 111.576 82.3658 111.027 83.2501C110.658 83.8439 109.994 84.1751 109.307 84.1751Z" fill="#F3A6BE"/>
<path d="M117.017 57.3499H107.1C106.003 57.3499 105.117 56.523 105.117 55.4999C105.117 54.4769 106.003 53.6499 107.1 53.6499H117.017C118.113 53.6499 119 54.4769 119 55.4999C119 56.523 118.113 57.3499 117.017 57.3499Z" fill="#F3A6BE"/>
<path d="M100.724 35.15C100.037 35.15 99.371 34.8188 99.0041 34.225C98.4567 33.3388 98.782 32.2085 99.73 31.6979L108.318 27.0729C109.264 26.5604 110.48 26.8638 111.027 27.75C111.574 28.6361 111.249 29.7665 110.301 30.2771L101.713 34.9021C101.402 35.0704 101.061 35.15 100.724 35.15Z" fill="#F3A6BE"/>
<path d="M83.2981 18.8998C82.961 18.8998 82.6198 18.8202 82.3085 18.6519C81.3584 18.1413 81.0332 17.0091 81.5826 16.1248L86.5409 8.11425C87.0883 7.2281 88.3021 6.9247 89.2501 7.43715C90.1982 7.9496 90.5254 9.07995 89.976 9.96425L85.0177 17.9748C84.6488 18.5668 83.9844 18.8998 83.2981 18.8998Z" fill="#F3A6BE"/>
<path d="M59.4999 12.95C58.4032 12.95 57.5166 12.123 57.5166 11.1V1.85C57.5166 0.82695 58.4032 0 59.4999 0C60.5967 0 61.4833 0.82695 61.4833 1.85V11.1C61.4833 12.123 60.5967 12.95 59.4999 12.95Z" fill="#F3A6BE"/>
<path d="M35.702 18.8994C35.0158 18.8994 34.3494 18.5683 33.9824 17.9744L29.0241 9.96392C28.4767 9.07777 28.802 7.94742 29.75 7.43682C30.6961 6.92622 31.9118 7.22777 32.4592 8.11392L37.4176 16.1244C37.965 17.0106 37.6397 18.1409 36.6917 18.6515C36.3803 18.8199 36.0392 18.8994 35.702 18.8994Z" fill="#F3A6BE"/>
<path d="M18.2766 35.1498C17.9394 35.1498 17.5983 35.0703 17.2869 34.9019L8.69908 30.2769C7.74906 29.7663 7.42379 28.6341 7.97318 27.7498C8.52058 26.8637 9.73438 26.5584 10.6824 27.0727L19.2702 31.6977C20.2203 32.2083 20.5455 33.3405 19.9961 34.2248C19.6272 34.8187 18.9628 35.1498 18.2766 35.1498Z" fill="#F3A6BE"/>
</g>
<defs>
<clipPath id="clip0_259_2943">
<rect width="119" height="111" fill="white"/>
</clipPath>
</defs>
</svg>
