<svg width="37" height="36" viewBox="0 0 37 36" fill="none" xmlns="http://www.w3.org/2000/svg">
<path d="M16.7316 1.11878C17.4196 -0.372846 19.5396 -0.372847 20.2276 1.11878L24.2353 9.80742C24.5157 10.4153 25.0918 10.8339 25.7566 10.9128L35.2584 12.0393C36.8897 12.2328 37.5448 14.249 36.3388 15.3643L29.3138 21.8607C28.8223 22.3153 28.6022 22.9925 28.7327 23.6492L30.5975 33.0341C30.9176 34.6453 29.2025 35.8914 27.7692 35.089L19.4198 30.4154C18.8356 30.0884 18.1235 30.0884 17.5393 30.4154L9.18998 35.089C7.7566 35.8914 6.0415 34.6453 6.36164 33.0341L8.22641 23.6492C8.35689 22.9925 8.13683 22.3153 7.64531 21.8607L0.620361 15.3643C-0.585651 14.249 0.0694578 12.2328 1.70069 12.0393L11.2025 10.9128C11.8673 10.8339 12.4435 10.4153 12.7239 9.80742L16.7316 1.11878Z" fill="#D9D9D9"/>
</svg>
